<svg width="68" height="75" viewBox="0 0 68 75" fill="none" xmlns="http://www.w3.org/2000/svg"><g clip-path="url(#clip0_2_101)"><path d="M17.4177 69.3897C19.3584 69.8354 20.3376 70.3921 20.9775 70.1355C23.3637 69.19 25.8842 68.3508 27.9594 66.8322C33.6547 62.9467 37.5896 57.5593 40.6513 51.4812C45.8909 41.1321 48.1187 30.0349 49.0208 18.5426C49.1199 17.3132 49.2861 16.1369 49.4382 14.8404C49.4912 14.7734 49.6644 14.6925 49.9579 14.5977C51.1173 16.169 52.3438 17.7933 53.5563 19.2975C54.2562 20.0693 55.1965 20.8132 56.2146 21.1828C56.7908 21.4208 58.0457 21.2149 58.417 20.7457C58.8942 20.1425 59.0074 19.0333 59.0287 18.1782C58.958 17.5774 58.4066 17.0321 57.9753 16.4729C54.7409 12.2792 51.6126 7.95131 48.2581 3.7714C45.4019 0.20381 43.3587 0.439856 40.8556 4.01752C38.2465 7.72924 35.503 11.3346 32.8798 14.9262C32.0985 16.0517 31.3985 17.3506 30.5782 18.6633C34.4067 19.6217 34.4067 19.6217 44.0051 9.56088C44.5242 17.6004 43.3148 24.9262 41.7978 32.2266C40.2808 39.5269 37.6786 46.4046 34.0053 52.9797C30.1728 59.7558 24.5235 64.5495 17.4177 69.3897Z" fill="#E9522A"></path></g> <defs><clipPath id="clip0_2_101"><rect width="30.3899" height="70.9097" fill="white" transform="matrix(-0.784221 -0.620482 -0.620482 0.784221 67.8306 18.8564)"></rect></clipPath></defs></svg>