
<?xml version="1.0" encoding="utf-8"?>
<!-- Generator: Adobe Illustrator 27.5.0, SVG Export Plug-In . SVG Version: 6.00 Build 0)  -->
<svg version="1.1" id="Layer_1" xmlns="http://www.w3.org/2000/svg" xmlns:xlink="http://www.w3.org/1999/xlink" x="0px" y="0px"
	 viewBox="0 0 1890.2 400" style="enable-background:new 0 0 1890.2 400;" xml:space="preserve">
<style type="text/css">
	.st0{display:none;fill:#FFFFFF;}
	.st1{fill:#00A1FF;}
	.st2{fill:url(#SVGID_1_);}
	.st3{fill:#FFFFFF;}
	.st4{fill:url(#SVGID_00000102503566105099759740000006053870857721019022_);}
	.st5{fill:url(#SVGID_00000167370458038589820940000002882523494875852975_);}
	.st6{fill:url(#SVGID_00000046330294992124258560000002142031975226904497_);}
	.st7{fill:url(#SVGID_00000079470682354286978430000001151806295948133814_);}
	.st8{fill:url(#SVGID_00000129164988966394132570000008814506675236748465_);}
	.st9{fill:url(#SVGID_00000150066280033412147640000008073578539697201572_);}
	
		.st10{clip-path:url(#SVGID_00000017496506863910233580000017022921811257821883_);fill:#00A1FF;stroke:#00A1FF;stroke-width:40;stroke-miterlimit:10;}
	.st11{display:none;}
	.st12{fill:#FFFFFF;stroke:#FFFFFF;stroke-miterlimit:10;}
	.st13{fill:url(#SVGID_00000102525241538371454350000012210329535074336443_);}
	.st14{clip-path:url(#SVGID_00000080912047527693600460000009535420915413677443_);fill:#FFFFFF;}
	.st15{display:inline;fill:#FFFFFF;}
	.st16{clip-path:url(#SVGID_00000067950312211241802470000007873970484801510818_);fill:#0B2932;}
	.st17{display:none;enable-background:new    ;}
	.st18{display:inline;fill:#00A1FF;}
</style>
<g>
	<circle class="st0" cx="1615.8" cy="208.1" r="54.3"/>
	<g>
		<circle class="st1" cx="220.2" cy="227.7" r="168.6"/>
		<path id="BG" class="st1" d="M1095.9,400c-11.6,0-22.3-1.4-32-4.1l0,0h-96.2c-7.8,0-14.2-6.3-14.2-14.2v0c0-2.8-4.1-3.1-4.5-0.3
			l-0.1,0.6c-1,7.9-7.8,13.8-15.8,13.8H560.1c-8.3,0-15.4-6.1-16.6-14.4l-0.1-0.7c-0.4-2.5-4-2.4-4.3,0.1c-1,8.7-8.9,15-17.6,15
			H357.6c-10.3,0-18.7-8.4-18.7-18.7V76.5c0-10.1,8.2-18.3,18.3-18.3h636.7c7.8,0,14.4,5.6,15.7,13.3l2.9,17.3
			c0.7,4.5,4.5,6.2,8.3,3.6c0.8-0.6,1.2-1.1,1.5-1.7c11-16.9,33-36.9,75-36.9c0,0,0.1,0,0.1,0c11.2,0,20.9,1.4,29.3,3.7l89.9,0
			c5.4,0,9.9,3.8,11.4,9c0.4,1.5,2.6,1.4,2.9-0.1l0.1-0.2c1.2-5.1,5.7-8.7,10.9-8.7h88c7.6,0,13,7.3,10.8,14.5l-2.4,8
			c-1.6,5.1,1.2,10.6,6.3,12.4c9.2,3.2,16.8,8.1,23,14.7c9.6,10.1,14.4,23.2,13.6,36.8c-0.7,12.6-6.8,26.3-11.8,35.6
			c-3,5.6-12.3,31.1-23.5,63.8c-1.2,3.4,1.7,6.8,5.2,6.2c4.1-0.7,9.1-1.4,13.4-1.9c3.5-0.4,6.4-2.9,7.2-6.4
			c7.3-32.3,19.5-87.9,21.8-98.5c0.3-1.5,0.6-2.9,0.9-4.5c2.2-11.3,5.2-26.7,20.5-42.4c12.5-12.7,26.6-18.9,43.2-18.9
			c4.5,0,8.6,0.4,12.3,0.8l0.1,0c12.1,1.3,23.3,5.6,32.5,12.4c0.2-0.1,0.4-0.3,0.6-0.4c11.7-8.1,27-11.9,51.1-12.7
			c3-0.1,11.4-0.5,19.7-0.9c24.8-1.2,62.3-3,78.7-3c1.7,0,3.1,0,4.4,0.1c6.4,0.2,12.8,1.3,18.8,3.3c6.6-3.5,14.2-5.7,22.7-6.5
			c16.1-1.6,64.3-3.9,73.9-4c5.8-0.1,20.3-0.1,33.8-0.1h18.1c0.7,0,7.2,0,14.6,0.9c15.1,1.7,25.6,5.8,33,13
			c12.1,11.6,22.5,31.9,15.6,53.9c-3.3,10.6-10.4,20.7-20,28.4c-4,3.2-8.2,5.9-12.6,8c4.7,8.4,7.2,18.1,7.2,28.2
			c0,8.9-2,17.9-5.6,26.2c-3.4,7.6-7.5,13.8-12.8,18.8c12.6,10.9,18.8,27,16.9,45.2c-0.4,3.7-1.6,15-9.9,26
			c-6.1,8.2-18.1,18.7-40.1,22.1c-9.1,1.4-28.3,5.6-43.8,9l-0.3,0.1c-14.8,3.2-26.5,5.7-32.7,6.7c-2.7,0.4-7.1,1.3-11.8,2.2
			c-18.5,3.6-33.6,6.4-45.1,6.4c-1.8,0-3.4-0.1-4.9-0.2c-9.5-0.7-38.6-3-54.5-28.9c-8.5-13.9-10.4-28.5-9.9-40.1
			c-6.6,1.1-17.9,2.4-37.9,3.5c-1.7,8.4-3.3,17.8-4.6,29.6c-1,9.5-6.2,26.9-30,37.7c-8.9,4.1-20,6.8-30.3,7.5
			c-1.6,0.1-3.2,0.2-4.8,0.2h0c-9.4,0-19-1.9-27.7-5.5c-4.4-1.8-8.6-4.1-12.4-6.6c-9.9,9.7-23,15-37.6,15c-2.9,0-5.9-0.2-8.9-0.6
			c-14.7-2-25.4-7.4-33.3-13.6c-2.6,0.4-6.2,0.8-11.1,1.4c-14.3,1.8-38.1,4.7-49.6,7.2c-4,0.9-8.6,2.1-13.5,3.4l-0.1,0
			c-8,2.1-16.6,4.4-25.4,5.9v2.1c0,9.1-7.3,16.4-16.4,16.4h-72.5c-8.8,0-16-7.2-16-16v-20.4c-0.9,1.5-1.8,2.9-2.8,4.3
			C1161.6,380,1138.7,400,1095.9,400z"/>
		<g id="FANTASY">
			<g>
				<linearGradient id="SVGID_1_" gradientUnits="userSpaceOnUse" x1="423.7807" y1="87.3332" x2="423.7807" y2="366.833">
					<stop  offset="0" style="stop-color:#F7A01E"/>
					<stop  offset="4.281765e-02" style="stop-color:#F7A520"/>
					<stop  offset="0.4794" style="stop-color:#FCD635"/>
					<stop  offset="0.8123" style="stop-color:#FEF442"/>
					<stop  offset="1" style="stop-color:#FFFF47"/>
				</linearGradient>
				<path class="st2" d="M370.2,366.8c-1.1,0-2.1-0.9-2.1-2.1V89.4c0-1.1,0.9-2.1,2.1-2.1h107.3c1.1,0,2.1,0.9,2.1,2.1v39.4
					c0,1.1-0.9,2.1-2.1,2.1h-62.7v68.3h59.6c1.1,0,2.1,0.9,2.1,2.1v39.4c0,1.1-0.9,2.1-2.1,2.1h-59.6v122c0,1.1-0.9,2.1-2.1,2.1
					H370.2z"/>
				<path class="st3" d="M477.4,89.4v39.4h-64.8v72.4h61.7v39.4h-61.7v124.1h-42.5V89.4H477.4 M477.4,85.3H370.2
					c-2.3,0-4.2,1.9-4.2,4.2v275.3c0,2.3,1.9,4.2,4.2,4.2h42.5c2.3,0,4.2-1.9,4.2-4.2V244.8h57.5c2.3,0,4.2-1.9,4.2-4.2v-39.4
					c0-2.3-1.9-4.2-4.2-4.2h-57.5V133h60.6c2.3,0,4.2-1.9,4.2-4.2V89.4C481.6,87.1,479.7,85.3,477.4,85.3L477.4,85.3z"/>
			</g>
			<g>
				
					<linearGradient id="SVGID_00000155842416877937671670000006332301891304593802_" gradientUnits="userSpaceOnUse" x1="541.6938" y1="87.3332" x2="541.6938" y2="366.833">
					<stop  offset="0" style="stop-color:#F7A01E"/>
					<stop  offset="4.281765e-02" style="stop-color:#F7A520"/>
					<stop  offset="0.4794" style="stop-color:#FCD635"/>
					<stop  offset="0.8123" style="stop-color:#FEF442"/>
					<stop  offset="1" style="stop-color:#FFFF47"/>
				</linearGradient>
				<path style="fill:url(#SVGID_00000155842416877937671670000006332301891304593802_);" d="M572.5,366.8c-1,0-1.9-0.8-2.1-1.8
					l-10.6-71.9h-38.7l-9.4,71.8c-0.1,1-1,1.8-2.1,1.8h-43.2c-0.6,0-1.2-0.3-1.6-0.7s-0.6-1.1-0.5-1.7l44.4-275.3
					c0.2-1,1-1.8,2.1-1.8h60c1,0,1.9,0.7,2.1,1.7l46,275.3c0.1,0.6-0.1,1.2-0.5,1.7c-0.4,0.5-1,0.7-1.6,0.7H572.5z M554.3,250
					l-0.4-2.9c-5.2-38.3-10.1-74.8-13.3-103.3c-2.3,23.8-7.5,61.6-11.8,93.2c-0.6,4.5-1.2,8.8-1.8,13H554.3z"/>
				<path class="st3" d="M570.8,89.4l46,275.3h-44.4l-10.8-73.7h-42.4l-9.6,73.7h-43.2l44.4-275.3H570.8 M524.7,252h32
					c-6.3-46.8-12.3-91.1-15.5-122.3h-1.6C538.5,152.5,530.2,211.4,524.7,252 M570.8,85.3h-60c-2,0-3.8,1.5-4.1,3.5l-44.4,275.3
					c-0.2,1.2,0.2,2.4,0.9,3.4c0.8,0.9,1.9,1.5,3.2,1.5h43.2c2.1,0,3.9-1.6,4.1-3.6l9.2-70h35.1l10.3,70.1c0.3,2,2.1,3.6,4.1,3.6
					h44.4c1.2,0,2.4-0.5,3.2-1.5c0.8-0.9,1.1-2.2,0.9-3.4l-46-275.3C574.6,86.7,572.9,85.3,570.8,85.3L570.8,85.3z M529.5,247.9
					c0.5-3.5,1-7,1.4-10.7c3.3-24.4,7.1-52.5,9.8-75c3.1,25.1,7,54.5,11.1,85.1l0.1,0.5H529.5L529.5,247.9z"/>
			</g>
			<g>
				
					<linearGradient id="SVGID_00000072245822001900817600000008040004584955730313_" gradientUnits="userSpaceOnUse" x1="693.2807" y1="87.3332" x2="693.2807" y2="366.833">
					<stop  offset="0" style="stop-color:#F7A01E"/>
					<stop  offset="4.281765e-02" style="stop-color:#F7A520"/>
					<stop  offset="0.4794" style="stop-color:#FCD635"/>
					<stop  offset="0.8123" style="stop-color:#FEF442"/>
					<stop  offset="1" style="stop-color:#FFFF47"/>
				</linearGradient>
				<path style="fill:url(#SVGID_00000072245822001900817600000008040004584955730313_);" d="M712.7,366.8c-0.9,0-1.8-0.6-2-1.6
					c-7.1-26.8-32.8-132.2-43.5-176.4c0.9,26,0.9,55.1,0.9,90.1l0,10.5v75.3c0,1.1-0.9,2.1-2.1,2.1h-39.6c-1.1,0-2.1-0.9-2.1-2.1
					V89.4c0-1.1,0.9-2.1,2.1-2.1h49.2c0.9,0,1.7,0.6,2,1.5c9.1,32.1,32.1,126.5,42.2,169.2c-1-27.7-1.1-58.8-1.1-97.2V89.4
					c0-1.1,0.9-2.1,2.1-2.1H760c1.1,0,2.1,0.9,2.1,2.1v275.3c0,1.1-0.9,2.1-2.1,2.1H712.7z"/>
				<path class="st3" d="M760,89.4v275.3h-47.3c-8.7-32.9-45.3-183.9-48.1-195.5h-0.4c2,33.3,1.8,70.7,1.8,120.2v75.3h-39.6V89.4
					h49.2c11,38.9,43.8,174.8,46.7,189.4h0.5c-2-33.9-2.1-72.6-2.1-117.8V89.4H760 M760,85.3h-39.2c-2.3,0-4.2,1.9-4.2,4.2v71.5
					c0,29.3,0.1,54.4,0.5,77c-11.3-47.3-29.6-121.8-37.5-149.6c-0.5-1.8-2.1-3-4-3h-49.2c-2.3,0-4.2,1.9-4.2,4.2v275.3
					c0,2.3,1.9,4.2,4.2,4.2h39.6c2.3,0,4.2-1.9,4.2-4.2v-75.3c0-3.6,0-7.1,0-10.5c0-26.4,0-49.5-0.4-70.5
					c12.2,50.1,32.7,133.9,38.8,157.3c0.5,1.8,2.1,3.1,4,3.1H760c2.3,0,4.2-1.9,4.2-4.2V89.4C764.2,87.1,762.3,85.3,760,85.3
					L760,85.3z"/>
			</g>
			<g>
				
					<linearGradient id="SVGID_00000010287631760226489000000008140823509372297101_" gradientUnits="userSpaceOnUse" x1="833.8507" y1="87.3332" x2="833.8507" y2="366.833">
					<stop  offset="0" style="stop-color:#F7A01E"/>
					<stop  offset="4.281765e-02" style="stop-color:#F7A520"/>
					<stop  offset="0.4794" style="stop-color:#FCD635"/>
					<stop  offset="0.8123" style="stop-color:#FEF442"/>
					<stop  offset="1" style="stop-color:#FFFF47"/>
				</linearGradient>
				<path style="fill:url(#SVGID_00000010287631760226489000000008140823509372297101_);" d="M812.5,366.8c-1.1,0-2.1-0.9-2.1-2.1
					V130.9h-42.1c-1.1,0-2.1-0.9-2.1-2.1V89.4c0-1.1,0.9-2.1,2.1-2.1h131.1c1.1,0,2.1,0.9,2.1,2.1v39.4c0,1.1-0.9,2.1-2.1,2.1H857
					v233.8c0,1.1-0.9,2.1-2.1,2.1H812.5z"/>
				<path class="st3" d="M899.4,89.4v39.4H855v235.9h-42.5V128.8h-44.2V89.4H899.4 M899.4,85.3H768.3c-2.3,0-4.2,1.9-4.2,4.2v39.4
					c0,2.3,1.9,4.2,4.2,4.2h40v231.8c0,2.3,1.9,4.2,4.2,4.2H855c2.3,0,4.2-1.9,4.2-4.2V133h40.3c2.3,0,4.2-1.9,4.2-4.2V89.4
					C903.6,87.1,901.7,85.3,899.4,85.3L899.4,85.3z"/>
			</g>
			<g>
				
					<linearGradient id="SVGID_00000018946839826013499880000004216322426398457494_" gradientUnits="userSpaceOnUse" x1="951.7975" y1="87.3332" x2="951.7975" y2="366.833">
					<stop  offset="0" style="stop-color:#F7A01E"/>
					<stop  offset="4.281765e-02" style="stop-color:#F7A520"/>
					<stop  offset="0.4794" style="stop-color:#FCD635"/>
					<stop  offset="0.8123" style="stop-color:#FEF442"/>
					<stop  offset="1" style="stop-color:#FFFF47"/>
				</linearGradient>
				<path style="fill:url(#SVGID_00000018946839826013499880000004216322426398457494_);" d="M982.6,366.8c-1,0-1.9-0.8-2.1-1.8
					L970,293.2h-38.7l-9.4,71.8c-0.1,1-1,1.8-2.1,1.8h-43.2c-0.6,0-1.2-0.3-1.6-0.7c-0.4-0.5-0.6-1.1-0.5-1.7l44.4-275.3
					c0.2-1,1-1.8,2.1-1.8h60c1,0,1.9,0.7,2.1,1.7l46,275.3c0.1,0.6-0.1,1.2-0.5,1.7c-0.4,0.5-1,0.7-1.6,0.7H982.6z M964.4,250
					l-0.4-2.9c-5.2-38.3-10.1-74.8-13.3-103.3c-2.3,23.8-7.5,61.6-11.8,93.2c-0.6,4.5-1.2,8.8-1.8,13H964.4z"/>
				<path class="st3" d="M980.9,89.4l46,275.3h-44.4l-10.8-73.7h-42.4l-9.6,73.7h-43.2L921,89.4H980.9 M934.8,252h32
					c-6.3-46.8-12.3-91.1-15.5-122.3h-1.6C948.6,152.5,940.3,211.4,934.8,252 M980.9,85.3h-60c-2,0-3.8,1.5-4.1,3.5l-44.4,275.3
					c-0.2,1.2,0.2,2.4,0.9,3.4c0.8,0.9,1.9,1.5,3.2,1.5h43.2c2.1,0,3.9-1.6,4.1-3.6l9.2-70h35.1l10.3,70.1c0.3,2,2.1,3.6,4.1,3.6
					h44.4c1.2,0,2.4-0.5,3.2-1.5c0.8-0.9,1.1-2.2,0.9-3.4l-46-275.3C984.7,86.7,983,85.3,980.9,85.3L980.9,85.3z M939.6,247.9
					c0.5-3.5,1-7,1.4-10.7c3.3-24.4,7.1-52.5,9.8-75c3.1,25.1,7,54.5,11.1,85.1l0.1,0.5H939.6L939.6,247.9z"/>
			</g>
			<g>
				
					<linearGradient id="SVGID_00000077290346529255423500000010215506080211680941_" gradientUnits="userSpaceOnUse" x1="1096.719" y1="82.9472" x2="1096.719" y2="370.8561">
					<stop  offset="0" style="stop-color:#F7A01E"/>
					<stop  offset="4.281765e-02" style="stop-color:#F7A520"/>
					<stop  offset="0.4794" style="stop-color:#FCD635"/>
					<stop  offset="0.8123" style="stop-color:#FEF442"/>
					<stop  offset="1" style="stop-color:#FFFF47"/>
				</linearGradient>
				<path style="fill:url(#SVGID_00000077290346529255423500000010215506080211680941_);" d="M1095.9,370.9
					c-24.1,0-41.7-7.3-52.4-21.6c-8.7-11.7-13-27.8-13-49.2v-16.3c0-1.1,0.9-2.1,2.1-2.1h42.5c1.1,0,2.1,0.9,2.1,2.1v17
					c0,20.6,6.2,29.8,20.2,29.8c12.6,0,18.8-10.3,18.8-31.5c0-28.1-4.9-36.6-35.1-60.4c-14-11.1-26.3-21.2-34.3-33.5
					c-8.3-12.7-12-27.2-12-47.2c0-22.1,3.9-38.8,12-51.2c10.3-15.8,27.3-23.8,50.6-23.8h0.1c23.4,0,40.3,7.7,50.1,22.8
					c7.1,11,10.6,25.8,10.6,45.4v14.7c0,1.1-0.9,2.1-2.1,2.1H1114c-1.1,0-2.1-0.9-2.1-2.1v-13.6c0-20.9-4.1-28.7-15.3-28.7
					c-10.9,0-15.4,8.2-15.4,28.2c0,19.2,3.7,28,27,45c41,30.3,54.7,48.5,54.7,95.9c0,22.8-4.6,40.9-13.6,53.9
					C1138.1,362.7,1120.1,370.9,1095.9,370.9z"/>
				<path class="st3" d="M1097.3,85c0,0,0.1,0,0.1,0c50.8,0,58.7,36.3,58.7,66.1v14.7H1114v-13.6c0-19.2-3.2-30.8-17.3-30.8
					c-13.8,0-17.4,12-17.4,30.2c0,19.5,3.7,29,27.9,46.7c41.2,30.5,53.8,48.2,53.8,94.2c0,39.1-13.7,76.1-65.1,76.1
					c-50.9,0-63.3-32.4-63.3-68.7v-16.3h42.5v17c0,20.5,6.1,31.9,22.3,31.9c16.6,0,20.8-15.7,20.8-33.6c0-29.6-6.4-38.8-35.9-62.1
					c-29.6-23.4-45.5-38.4-45.5-79.1C1036.7,121.6,1047.7,85,1097.3,85 M1097.3,80.9c-24,0-41.7,8.3-52.4,24.7
					c-4.5,6.8-7.8,15.2-9.8,24.8c-1.7,8.1-2.6,17.4-2.6,27.5c0,20.4,3.8,35.3,12.3,48.3c8.2,12.6,20.6,22.9,34.7,34
					c29.5,23.3,34.3,31.5,34.3,58.8c0,26.3-9.5,29.4-16.7,29.4c-9,0-18.1-3.3-18.1-27.7v-17c0-2.3-1.9-4.2-4.2-4.2h-42.5
					c-2.3,0-4.2,1.9-4.2,4.2v16.3c0,21.9,4.4,38.4,13.4,50.5c5.4,7.2,12.5,12.7,21.1,16.4c9.2,4,20.3,6,33,6
					c25,0,43.6-8.5,55.2-25.2c9.3-13.4,14-31.9,14-55.1c0-24.4-3.6-40.9-12-55.1c-9.1-15.3-23.9-28.1-43.5-42.5c0,0,0,0,0,0
					c-23.8-17.4-26.2-26.2-26.2-43.3c0-9.3,1-15.9,3.1-20.1c2.1-4.1,5.2-6,10.2-6c8.3,0,13.2,4.4,13.2,26.6v13.6
					c0,2.3,1.9,4.2,4.2,4.2h42.1c2.3,0,4.2-1.9,4.2-4.2v-14.7c0-20-3.6-35.2-10.9-46.5c-10.2-15.8-27.7-23.8-51.9-23.8L1097.3,80.9
					L1097.3,80.9z"/>
			</g>
			<g>
				
					<linearGradient id="SVGID_00000179645524341468554490000009184286044543058876_" gradientUnits="userSpaceOnUse" x1="1228.7339" y1="86.6593" x2="1228.7339" y2="366.1597">
					<stop  offset="0" style="stop-color:#F7A01E"/>
					<stop  offset="4.281765e-02" style="stop-color:#F7A520"/>
					<stop  offset="0.4794" style="stop-color:#FCD635"/>
					<stop  offset="0.8123" style="stop-color:#FEF442"/>
					<stop  offset="1" style="stop-color:#FFFF47"/>
				</linearGradient>
				<path style="fill:url(#SVGID_00000179645524341468554490000009184286044543058876_);" d="M1207.3,366.2c-1.1,0-2.1-0.9-2.1-2.1
					v-97.5c0-3.3-0.4-5.1-1.5-8.7l-51.3-168.5c-0.2-0.6-0.1-1.3,0.3-1.8c0.4-0.5,1-0.8,1.7-0.8h47c1,0,1.8,0.7,2,1.6
					c9.4,38,20.8,84.2,26.2,115.4c4.6-23.6,11.7-53.7,18.6-82.9c2.5-10.8,5.2-21.9,7.6-32.5c0.2-0.9,1.1-1.6,2-1.6h45.1
					c0.7,0,1.3,0.3,1.7,0.8c0.4,0.5,0.5,1.2,0.3,1.8l-52.4,172c-0.4,2-0.8,4.6-0.8,10v92.8c0,1.1-0.9,2.1-2.1,2.1H1207.3z"/>
				<path class="st3" d="M1303,88.7l-52.4,172.1c-0.4,2-0.8,4.7-0.8,10.5v92.8h-42.5v-97.5c0-3.6-0.4-5.6-1.5-9.3l-51.3-168.5h47
					c11,44.7,23.7,96,27.9,126h0.4c5.7-32.5,18-82.1,28.2-126H1303 M1303,84.6h-45.1c-1.9,0-3.6,1.3-4.1,3.2
					c-2.5,10.6-5.1,21.7-7.6,32.5c-5.9,25-12,50.7-16.5,72.4c-5.9-30.6-15.9-71.1-24.3-104.9c-0.5-1.9-2.1-3.2-4-3.2h-47
					c-1.3,0-2.6,0.6-3.3,1.7c-0.8,1.1-1,2.4-0.6,3.7l51.3,168.5c1,3.5,1.4,5,1.4,8.1v97.5c0,2.3,1.9,4.2,4.2,4.2h42.5
					c2.3,0,4.2-1.9,4.2-4.2v-92.8c0-5.1,0.3-7.6,0.7-9.5L1307,90c0.4-1.3,0.1-2.6-0.6-3.7C1305.6,85.2,1304.3,84.6,1303,84.6
					L1303,84.6z"/>
			</g>
		</g>
		<g id="LIFE">
			<path class="st3" d="M1422.8,341.9c-1.5,0-3-0.1-4.6-0.3c-25.9-3.6-29.1-23.7-29.5-29.8c-0.5-8.6,3.1-21.8,6.2-33.4
				c0.7-2.4,1.3-4.7,1.9-6.9c3.1-11.9,24.4-109,27.3-122.3c0.4-1.8,0.7-3.4,1-5c1.9-9.8,3.4-17.5,12.1-26.4
				c6.6-6.8,12.7-9.5,20.9-9.5c2.9,0,5.9,0.3,9.1,0.7c10.2,1.1,19,6.1,24.1,13.7c4.3,6.4,5.7,14,3.7,20.9
				c-1.3,4.6-10.7,39.7-20.6,76.7c-11.2,41.7-22.7,84.9-24.6,91.4l-0.7,2.4C1446,325.1,1441.3,341.9,1422.8,341.9z"/>
			<path class="st3" d="M1500.6,339.1c-10.8,0-21.9-4.6-28.3-11.7c-6.3-6.9-3.9-21.6-0.9-35.1c2-8.8,30.8-130.5,34.7-143
				c0.7-2.4,1.4-4.8,2.1-7.3c3.2-11.3,6.2-21.9,13-26.6c6.3-4.3,17.2-6.6,34.5-7.2c3.1-0.1,10.6-0.5,20.1-0.9
				c24.5-1.2,61.5-2.9,77.2-2.9c1.3,0,2.5,0,3.5,0c12.9,0.3,22.5,7.8,27.1,14.6c3.2,4.7,4.3,9.4,3,12.9c-0.4,1.1-0.7,2.1-1,3.1
				c-1.5,4.7-2.8,9.1-10.2,13.6c-8.8,5.3-24.3,8-48.8,8.5c-20.8,0.4-45.4,4.1-53.3,5.4l-13.6,48.4c8.2-0.4,23.4-1,33.6-1
				c3.4,0,6,0.1,7.9,0.2c8.9,0.7,16.9,4.9,22.5,12c4.4,5.6,6.8,12.3,6.1,17c-1.3,8.5-10.7,17.3-22.2,21c-9.7,3.1-50.1,4.7-62.4,5.1
				c-1.2,4.6-3.5,13.7-4.9,20.5c-2,10-4.1,21.3-5.7,36c-1.2,11.1-19.9,16.5-31.4,17.3C1502.3,339.1,1501.5,339.1,1500.6,339.1
				L1500.6,339.1z"/>
			<path class="st3" d="M1677.5,329.9c-0.9,0-1.7,0-2.5-0.1c-11.2-0.9-23.6-3.2-30.3-14.1c-7.4-12-5.4-26.5-4.1-32.1
				c1.5-7.1,11.3-48.1,16.1-67.9l2.4-10.1c0.4-1.7,1.2-5.2,2.3-10c10.2-43.9,17.4-73.9,19.3-78c0.3-0.7,0.6-1.4,1-2.2
				c2.1-5.1,5.3-12.9,20.4-14.4c15.2-1.5,62.3-3.8,71.3-3.9c5.6-0.1,20.7-0.1,33.2-0.1h18.1c0.3,0,20.7,0.1,26,5.2
				c1.1,1.1,10.9,11,7.5,22.1c-2.9,9.2-14.1,19.6-27.2,20.5c-5.2,0.3-12.8,1.5-20.9,2.6c-8.9,1.3-18.2,2.7-24.7,3
				c-10,0.5-33.2,1.9-41.4,2.4l-7,25.4c13.5-0.6,47.2-2.1,56.6-2.4l3.1-0.1c2.6-0.1,5.1-0.2,7.6-0.2c8.5,0,17.8,1,22.8,8.1
				c6.2,8.9,4.8,20.5,1.3,28.3c-3.7,8.5-7.8,12.8-22.2,15.6c-7.6,1.5-20.3,2.8-32.6,4.1c-10.4,1.1-20.2,2.1-26.4,3.1
				c-10.1,1.7-21.5,2-27.5,2c-0.3,0-0.6,0-0.8,0l-7.7,32.2c14.1-1.6,49.6-5.5,58.5-6.3c2.3-0.2,5.1-0.6,8-1
				c6.7-0.9,14.3-1.9,21.8-1.9c6.4,0,11.5,0.7,15.8,2.3c7.5,2.7,16.2,8.9,14.7,23.1c-0.4,4.2-1.8,17.2-23.7,20.6
				c-10,1.6-29,5.7-45.8,9.3c-13.8,3-25.7,5.6-31.2,6.5c-3.2,0.5-7.6,1.4-12.8,2.4C1703.4,326.7,1686.9,329.9,1677.5,329.9z"/>
			<g>
				<defs>
					
						<rect id="SVGID_00000070808134968773128740000009304797735407264155_" x="1182.7" y="60.7" transform="matrix(0.9799 0.1995 -0.1995 0.9799 69.9877 -241.9681)" width="105.6" height="331.2"/>
				</defs>
				<clipPath id="SVGID_00000167355707605793986580000014899496846239412382_">
					<use xlink:href="#SVGID_00000070808134968773128740000009304797735407264155_"  style="overflow:visible;"/>
				</clipPath>
				
					<path style="clip-path:url(#SVGID_00000167355707605793986580000014899496846239412382_);fill:#00A1FF;stroke:#00A1FF;stroke-width:40;stroke-miterlimit:10;" d="
					M1262.8,347.2c-2,0-4-0.1-5.8-0.3c-9.6-1.2-18.1-6.1-23.2-13.5c-4.9-7.1-6.4-15.8-4.3-25c4.3-18.4,26.4-109.7,30.9-124.6
					c4.4-14.8,9.9-33.1,11.9-39.9c2-6.7,7.2-24.6,39.7-25l1.4,0c14.8,0,25.3,3.2,31.3,9.6c4.9,5.1,5.3,10.7,5.1,13.6
					c-0.5,7.8-6.3,19.3-8.1,22.6c-7.3,13.6-31.6,85.5-44.1,123.9c13-1.7,41.9-5.5,49.7-6.9l3.8-0.7c7.5-1.4,15.3-2.8,21.7-2.8
					c2.2,0,4,0.2,5.7,0.5c12.2,2.4,17.9,10.6,16.3,23.2c-1.5,11.5-4.1,23.9-16.7,25.7c-2.4,0.4-6.9,0.9-12.6,1.6
					c-15.8,2-39.6,4.9-52.4,7.7c-4.8,1-9.7,2.3-14.9,3.7C1286.3,343.9,1273.8,347.2,1262.8,347.2z"/>
			</g>
			<path class="st3" d="M1263,347.2c-2,0-4-0.1-5.8-0.3c-9.6-1.2-18.1-6.1-23.2-13.5c-4.9-7.1-6.4-15.8-4.3-25
				c4.3-18.4,26.4-109.7,30.9-124.6c4.4-14.8,9.9-33.1,11.9-39.9c2-6.7,7.2-24.6,39.7-25l1.4,0c14.8,0,25.3,3.2,31.3,9.6
				c4.9,5.1,5.3,10.7,5.1,13.6c-0.5,7.8-6.3,19.3-8.1,22.6c-7.3,13.6-31.6,85.5-44.1,123.9c13-1.7,41.9-5.5,49.7-6.9l3.8-0.7
				c7.5-1.4,15.3-2.8,21.7-2.8c2.2,0,4,0.2,5.7,0.5c12.2,2.4,17.9,10.6,16.3,23.2c-1.5,11.5-4.1,23.9-16.7,25.7
				c-2.4,0.4-6.9,0.9-12.6,1.6c-15.8,2-39.6,4.9-52.4,7.7c-4.8,1-9.7,2.3-14.9,3.7C1286.4,343.9,1273.9,347.2,1263,347.2z"/>
		</g>
	</g>
	<g>
		<g>
			<g>
				<g>
					<g>
						<path class="st0" d="M1623.4,165.8c5.6,0,11.1,1.1,16.3,3.3c5,2.1,9.4,5.1,13.3,9c3.8,3.8,6.8,8.3,9,13.3
							c2.2,5.1,3.3,10.6,3.3,16.3c0,5.6-1.1,11.1-3.3,16.3c-2.1,5-5.1,9.4-9,13.3c-3.8,3.8-8.3,6.8-13.3,9
							c-5.1,2.2-10.6,3.3-16.3,3.3s-11.1-1.1-16.3-3.3c-5-2.1-9.4-5.1-13.3-9c-3.8-3.8-6.8-8.3-9-13.3c-2.2-5.1-3.3-10.6-3.3-16.3
							c0-5.6,1.1-11.1,3.3-16.3c2.1-5,5.1-9.4,9-13.3c3.8-3.8,8.3-6.8,13.3-9C1612.3,166.9,1617.8,165.8,1623.4,165.8 M1623.4,164.8
							c-23.6,0-42.8,19.2-42.8,42.8s19.2,42.8,42.8,42.8c23.6,0,42.8-19.2,42.8-42.8S1647,164.8,1623.4,164.8L1623.4,164.8z"/>
						<g class="st11">
							<path class="st12" d="M1623.3,240.1c-8.6,0-16.7-3.3-22.7-9.4s-9.4-14.1-9.4-22.7s3.3-16.7,9.4-22.7
								c6.1-6.1,14.1-9.4,22.7-9.4s16.7,3.3,22.7,9.4c6.1,6.1,9.4,14.1,9.4,22.7s-3.3,16.7-9.4,22.7S1631.9,240.1,1623.3,240.1z
								 M1623.3,176.7c-8.3,0-16.2,3.2-22.1,9.1c-5.9,5.9-9.1,13.7-9.1,22.1c0,8.3,3.2,16.2,9.1,22.1c5.9,5.9,13.7,9.1,22.1,9.1
								c8.3,0,16.2-3.2,22.1-9.1c5.9-5.9,9.1-13.7,9.1-22.1c0-8.3-3.2-16.2-9.1-22.1C1639.5,180,1631.6,176.7,1623.3,176.7z"/>
						</g>
						<g>
							
								<linearGradient id="SVGID_00000096019165156233105150000015225765944297169294_" gradientUnits="userSpaceOnUse" x1="220.2349" y1="100.7842" x2="220.2349" y2="354.6646">
								<stop  offset="0" style="stop-color:#F7A01E"/>
								<stop  offset="4.281765e-02" style="stop-color:#F7A520"/>
								<stop  offset="0.4794" style="stop-color:#FCD635"/>
								<stop  offset="0.8123" style="stop-color:#FEF442"/>
								<stop  offset="1" style="stop-color:#FFFF47"/>
							</linearGradient>
							<path style="fill:url(#SVGID_00000096019165156233105150000015225765944297169294_);" d="M220.2,354.7
								c-33.9,0-65.8-13.2-89.8-37.2c-24-24-37.2-55.9-37.2-89.8s13.2-65.8,37.2-89.8c24-24,55.9-37.2,89.8-37.2S286,114,310,138
								c24,24,37.2,55.9,37.2,89.8S334,293.5,310,317.5C286,341.5,254.1,354.7,220.2,354.7z"/>
							<path class="st3" d="M220.2,102.9c16.9,0,33.2,3.3,48.6,9.8c14.9,6.3,28.2,15.3,39.7,26.8c11.5,11.5,20.5,24.8,26.8,39.7
								c6.5,15.4,9.8,31.7,9.8,48.6c0,16.9-3.3,33.2-9.8,48.6c-6.3,14.9-15.3,28.2-26.8,39.7c-11.5,11.5-24.8,20.5-39.7,26.8
								c-15.4,6.5-31.7,9.8-48.6,9.8s-33.2-3.3-48.6-9.8c-14.9-6.3-28.2-15.3-39.7-26.8c-11.5-11.5-20.5-24.8-26.8-39.7
								c-6.5-15.4-9.8-31.7-9.8-48.6c0-16.9,3.3-33.2,9.8-48.6c6.3-14.9,15.3-28.2,26.8-39.7c11.5-11.5,24.8-20.5,39.7-26.8
								C187,106.2,203.4,102.9,220.2,102.9 M220.2,98.7c-71.3,0-129.1,57.8-129.1,129.1c0,71.3,57.8,129.1,129.1,129.1
								c71.3,0,129.1-57.8,129.1-129.1C349.3,156.4,291.5,98.7,220.2,98.7L220.2,98.7z"/>
						</g>
						<circle class="st3" cx="238.9" cy="248.8" r="55.2"/>
						<g>
							<defs>
								<circle id="SVGID_00000065760060385078618720000011868949321732852106_" cx="220.2" cy="227.7" r="129.1"/>
							</defs>
							<clipPath id="SVGID_00000173121356282359792420000015128401903921703574_">
								<use xlink:href="#SVGID_00000065760060385078618720000011868949321732852106_"  style="overflow:visible;"/>
							</clipPath>
							
								<rect x="95.6" y="140.1" style="clip-path:url(#SVGID_00000173121356282359792420000015128401903921703574_);fill:#FFFFFF;" width="249.2" height="5.3"/>
							
								<rect x="95.6" y="182.4" style="clip-path:url(#SVGID_00000173121356282359792420000015128401903921703574_);fill:#FFFFFF;" width="249.2" height="5.3"/>
							
								<rect x="95.6" y="224.7" style="clip-path:url(#SVGID_00000173121356282359792420000015128401903921703574_);fill:#FFFFFF;" width="249.2" height="5.3"/>
							
								<rect x="95.6" y="266.9" style="clip-path:url(#SVGID_00000173121356282359792420000015128401903921703574_);fill:#FFFFFF;" width="249.2" height="5.3"/>
							
								<rect x="95.6" y="309.2" style="clip-path:url(#SVGID_00000173121356282359792420000015128401903921703574_);fill:#FFFFFF;" width="249.2" height="5.3"/>
						</g>
					</g>
					<g class="st11">
						<path class="st15" d="M1623.3,176.7c-8.3,0-16.2,3.2-22.1,9.1c-5.9,5.9-9.1,13.7-9.1,22.1c0,8.3,3.2,16.2,9.1,22.1
							c5.9,5.9,13.7,9.1,22.1,9.1c8.3,0,16.2-3.2,22.1-9.1c5.9-5.9,9.1-13.7,9.1-22.1c0-8.3-3.2-16.2-9.1-22.1
							C1639.5,180,1631.6,176.7,1623.3,176.7z"/>
					</g>
				</g>
				<g>
					<defs>
						<path id="SVGID_00000062162544556151860660000002946272361266479031_" d="M381,219.8c0,92.9-67.8,176.1-160.7,176.1
							c-50.6,0-96.1-22.2-126.9-57.5c-4.5-5.1-12.8-3.9-16.7-9.5C58.3,302,2.1,385.5,0,261.1C-0.6,223.2,18.3,72,152.4,12.9
							c14.2-6.3,37.2-13.2,50-12.9c6.5,0.2,42.9,4.9,75.8,22.9c28.2,15.5,69.8,24.3,108.2,75.8C402.1,119.7,381,206.7,381,219.8z"/>
					</defs>
					<clipPath id="SVGID_00000011752205315229307990000005122540781613867142_">
						<use xlink:href="#SVGID_00000062162544556151860660000002946272361266479031_"  style="overflow:visible;"/>
					</clipPath>
					<path style="clip-path:url(#SVGID_00000011752205315229307990000005122540781613867142_);fill:#0B2932;" d="M203.3,401.6
						c0,0-1.5-54.2-0.3-84.8c3.4-82.3,42.7-210.1,42.7-210.1s1.2-1.1,2.5,1.1c1.4,2.2,4.8,7.8,5.7,13.2c0.9,5.4-0.3,21.4-0.3,21.4
						s6.7-16.3,7.5-17c0.8-0.7,1.1-0.3,1.2,1.4c0.1,1.7-0.8,12-1.7,17c-0.9,5-4,15.6-4,15.6s6.5-7.1,9.5-7.2s-1.1,3.1-2.2,6.8
						s-4.3,19.7-6.1,22.1c-0.1-0.1,5.8-3,8.4-4.2c2.6-1.2,8.1-6,8.9-7.1c0.8-1.1,1.1,0.7,0.3,2.3c-0.8,1.6-6.4,12.3-7.9,16
						c-1.5,3.8-3.3,8.9-4.8,10.9c0.2,0.1,7.9-4,13-9.2c5.1-5.2,8.7-8.9,8.7-8.9s1.1-0.4,0.2,1.6c-0.9,2-4.5,8.1-6.4,11.8
						c-3.3,6.2-9.8,10.1-9.8,10.1s1.5,5.8,0.7,14c-0.8,8.2-1.9,13.8-1.9,13.8s14.5-6.3,20.7-25.4s6.9-27.7,6.7-35.1
						c-0.2-7.4-3.7-23.2-9.9-35.4c-7-13.8-18.7-27.6-21.2-29.4c-1.5-1.1,0.1-1.7,1.3-1.5c1.8,0.4,8.9,4,12.9,8.6
						c4,4.6,10,12.9,10,12.9s-0.6-8.4-0.7-9.5c-0.1-1.1,0.1-1.6,1.7,0.5c1.6,2.1,13.3,23,15.1,27.9c0,0,1.6-7.8,2.2-12.2
						c0.6-4.3,0.4-6.8,1-7.1c0.6-0.3,1.9-0.3,2.9,3.1c1,3.4,1.5,9.9,1.7,13.5c0.8,14.6,8.9,22.7,8.9,22.7s3.5-7.4,3.7-13
						c0.2-5.6,0.1-7.2,1.3-7.1s1.6,1.1,1.7,2.2c0.1,1.1,1,6.7,1.5,11.6c0.5,4.8,2.4,12.4,2.5,16.2c0.1,3.9-0.1,7-0.1,7
						s9.3-8.5,10.5-10.8c1.2-2.3,1.1,1.4,0.9,3s-2.2,11.4-2.6,18.4s5.1,18.9,5.1,18.9s10.4-10,11.3-12.6c0.9-2.6,0.8-4.3,1.4-4.4
						c0.6-0.2,1.3,1.9,1.2,4.3c-0.1,2.5-1.8,11-3.6,14.3c-3.9,7.4-4.7,15-4.7,15s7.9-0.8,12.5-4.1c2.5-1.8,3.2-2.5,3.5-2.2
						s0.4,5.4-2,9.8c-2.4,4.3-7.3,10.3-7.3,10.3s11.9,1.5,17.4-12.4c5.5-13.8,7.9-38.5-11.7-75.9c-19.6-37.4-51.8-50-66.3-54.4
						c-14.5-4.5-18.6-4.1-18.6-4.1l2.5-1.4c0,0-8.4-2.2-16.7-0.7c-0.1,0.1-0.1-3,1.2-3.8c1.3-0.8,1.3-0.8,1.3-0.8s-1.8-1.1-4.1-0.3
						c0,0-0.4-5.6,14.3-2.5c0,0,1.9-6.7,0-8.9c0,0.2,4.6-0.9,8.3,0c0-0.1,1.2-5.2,0-6.7c0.1,0.1,10.5-1.9,14.6,3.3
						c0.1,0,0.1-1.8-0.4-2.8c0,0,12.2-1.7,13.6,3.9c0,0,0.1-4.3-0.5-6.5c0,0,13.5-1.7,24.7,4.1c1.6,1,2.1,1.2,2.1,1.2s0.2-0.8-0.3-2
						c0,0,7.5-0.5,15,7c0.1,0.1,0-2.2,0-2.8c0-0.5,5.7-2.4,12,3.6c6.3,6,11.7,15.6,11.7,15.6s-14.1-35-45.2-40.1
						c-34.3-5.7-68.6,21.3-71.9,24.7c-3.2,3.4-4.2,4.6-4.2,3.6c0.8-3.3,6.2-14,10.1-19.7c4-5.7,7.4-10.9,10.5-16.9
						c3.1-6,3.7-14.8,3.7-14.8s-4.3,10.5-10.1,17.5S251,82.1,251,82.1s-0.7-23.9-4.9-37.6c-5.4-17.2-22.1-43.3-44.8-43.3
						c-24.8,0-34.3,18.2-34.3,18.2s4.8-5.6,11.4-9s11.2-2.3,11.2-2.3s-0.8,0-4.8,1.2s-12.8,9.8-12.8,9.8s4.1,0,10-2.1
						c5.9-2.1,10.7-4.8,12.1-5.5c1.4-0.7,1.5-0.3,1.6,0s-0.1,1.7-2.4,4c-2.2,2.3-5.6,8.7-5.6,8.7s2.5-0.7,5.5-2.7
						c3-2,7.9-5.9,8.5-6.3c0.6-0.4,1.4-0.1,1.7,0.5c0.3,0.7,0.1,1.4-1.3,3.5s-5,9.3-5,9.3c2.3-1.5,8.3-7.7,8.7-7.7
						c0.4,0,1.9-0.6,2,3c0,3.6-5.4,13.5-5.4,13.5c7.6,0,14.8-7.3,15.3-7.9c0.5-0.6,1.5-0.3,1.7,0.4c0.2,0.7-0.4,2.8-1.8,4.5
						c-1.4,1.7-4.2,5.9-4.2,5.9c4.3-0.5,8.2-2.5,8.9-2.9c0.7-0.4,1.4-0.2,1.6,0.2c0.2,0.4-0.2,1-1.6,4.1c-1.4,3.1-1,8.6-1,8.6
						s2.8-3.3,4.2-4.3s2.3,0,2.4,0.6c0.1,0.6-3.9,4.9-3.9,4.9l2.7,2.3l8.3,0.8l-3.1,4.1c0,0,2.1-0.1,3.4-0.6
						c1.3-0.5,1.8-0.1,2.1,0.3c0.2,0.4-0.1,0.5-1.7,2.9s-1,7-1,7s0.3-1.1,1.6-2.9c1.3-1.8,3.2-2.1,3.5-2c0.3,0.1,1,1-0.2,3.3
						s-1.5,6.6-1.5,6.6s2.3-2.4,4.7-1.8c0.8,0.2,0.9,1.8,1,3.7c0,1.9,1.1,6.2,1.1,6.2s0.6-0.5,0.7,0.8c0.1,1.3-0.6,2.5-0.6,2.6
						c-11.5-12.9-47.8-39.2-53.3-41.8c-5.5-2.6-17.1-8.1-42.2-9.2c-25.2-1.1-49.4,16.6-59.2,23.3S71.1,74,71.1,74s6.3-1.8,9.8-2.9
						c3.6-1.1,13.2-5.3,21-8.8c7.7-3.5,11.2-7.2,12.3-8c1.1-0.9,1.9-0.3,1.8,0.2c-0.1,0.5-2.5,4.4-5.5,7.1c-3,2.7-6.7,9.6-6.7,9.6
						s4.8-1.1,9.8-4.1c5-3,9.2-8.3,10.2-9.2s1.8-1.3,2.2-1.1c0.5,0.2,1,1.7,0.4,3.8c-0.6,2-6.1,15-6.1,15s9.2-7.5,13.7-13.6
						s8-12.5,8.9-13.2c0.9-0.8,2,0.1,1.8,1.1s-1.9,4.7-6.1,10.7c-4.2,6-6.5,17.9-6.5,17.9s2-4.3,5.8-7.6s8-8.4,8.3-9.1
						c0.3-0.7,1.8-1.9,2-0.5s-0.5,5.7-1.8,8.4c-1.3,2.6-2.2,5.6-2.2,5.6l3.6-2.6c0,0,8.3-10.4,11-14.2c2.7-3.8,5.1-7.8,6-8.3
						s1.7,0.2,1.3,1.8c-0.5,1.6-2.3,6.5-2.9,11.8s5.1,9.8,5.1,9.8s2.1-9.4,3-12s3.7-4.5,4.3-4.3c0.7,0.2,0.8,1.4-0.9,5.5
						s0.1,13.5,0.1,13.5s3-4.3,3.6-4.8c0.7-0.5,2.6-0.3,3.2,0.4c0.5,0.7,0.5,6.7,0.5,6.7s2.7-2.4,3.8-4.1c1.1-1.6,1.4-4.6,3.5-6.4
						c2-1.8,5.8-1.9,5.9-1.1c0.1,0.8-0.1,13.5-0.1,13.5c2.2-3,4.3-8.5,4.7-10.5c0.3-2,2.6-3.4,3.3-2.8c0.7,0.6,0.5,2.8,0.6,5.2
						c0.1,2.4,2,7.8,2,7.8s1.4-3.3,1.8-4.7c0.4-1.4-0.1-5.1,1.3-5.3s3.6,3,4.7,4.5s3.9,5.7,3.9,5.7s0.2-1.2-0.3-3.2
						c-0.5-2-1.5-4.2-0.7-4.5c0.8-0.3,3,2.6,4.9,5.4s7.6,11.2,7.6,11.2s-0.6-8,1.3-7.9c1.8,0.1,3.8,6.6,3.9,6.7
						c0.2-3.2,2.5-2.1,3.5-1.3c1,0.8,6,7.2,6.3,7.7c0.3,0.5,0.6,2.2-0.6,1.8c-0.6-0.2-21-4.6-43.7-5c-10.6-0.2-23.5,1.8-33.1,3.2
						c-30.1,4.6-42.6,16.5-52,24.9s-22.4,29.6-30,47.5c-7.6,17.9-9.4,31-9.4,31c3.1-7.1,21.1-26.4,23.9-26.5c2-0.1,1.9,1.7,1.8,5.3
						c-0.1,3.6,2.4,13.4,2.4,13.4s0.9-5.9,2.3-9c1.4-3.2,8.1-16.3,10.3-21c2.2-4.7,8.7-17.3,9.8-19.8s2-3.4,2.6-3.4s0.7,2,0.1,3.6
						c-0.5,1.6-5.7,15.3-7.8,21.6c-2.1,6.3-1.7,17.3-1.7,17.3c0.3-1.4,2.2-4.3,3.8-6.3c1.6-2,12.1-17.4,15.5-25.6
						c3.4-8.2,6-20,7-22.7c1-2.7,2.4-4.7,3.2-4.1c0.8,0.6,0.5,4.7-0.3,7.1s-5.5,17.3-7.4,22.7c-1.8,5.4-3,19.1-3,19.1
						s1.7-4.1,3.7-6.9c2-2.8,16-23.1,19.5-29.3c3.5-6.2,6-11.1,6.7-12c0.7-0.9,1.6,0.1,1.4,1c-0.1,0.9-0.5,1.3-2.2,8.3
						s0.1,28.3,0.1,28.3s0.1-4.9,1.4-9s5.3-11.1,8.8-17.3c3.4-6.2,4.9-9.5,5.1-11.8s1.3-6.3,2-6.3s2.6,4.9,2.6,11.1
						s0.5,23.1,0.5,23.2c7-11.5,10.7-28.2,11.3-31.9c0.7-3.7,1.6-7.1,2.4-6.8c0.8,0.3,1.3,4.1,1.1,7.8s-3.4,18.7-3.4,18.7
						c3.8-4.6,8.4-20.8,9.2-22.2c0.8-1.4,1.9-2.4,2.7-1.5c0.8,0.9-1.4,12.5-1.4,12.4c3.5-5.1,13.8-11.2,17.3-13.2s8.9-6.7,9.8-7.5
						c0.9-0.9,2.4-1.2,3.4-0.6c1,0.6,0.5,2.4,0.5,2.2c-22.5,50.6-37.4,115.7-41.9,134.3s-13.4,82.3-15,101.8s-6.9,78.2-6.9,78.2
						h-1.7c0,0-1.3-66.9-21.5-112c-18.3-41-51.1-65.7-51.1-65.7s0.7-2,3.3,0c-0.1-0.1-1.7-3.6,0.9-2.2c2.6,1.4,9,6.6,10.1,8.9
						c0.1,0-2-4.5-2.6-5.7c-0.5-1.2-0.4-2.3,0.7-1.9c1.1,0.4,6.5,6.3,8.6,13.6c0.2,0,0.4-4.8,0.9-5.2c0.5-0.4,1.8,2.9,3.5,5.9
						c1.7,3,6.6,8.8,6.6,8.8s-3.5-7.8-2.9-10.3c0.2-1.2,2-1.3,2.7,0.1c0.7,1.4,6.1,17.4,6.1,17.4s-0.3-5.5-1.1-9.8
						c0,0,0.6-0.6,1.3-0.6c0.7,0,2.3,2.8,3.8,6.7s5.5,18.4,5.5,18.4s0.6-9.7-2.1-19.1c-2.5-8.7-6.6-17.9-10.9-21.9
						c-8.2-7.6-21.5-11.6-25.4-11.7c-3.9-0.1-7.7,0.1-10.7,0.6s-3.3-1.4-3.3-2.3c0-1,1.3-3.5,2.6-3.3c1.4,0.2,2,3,2,3
						s0.6-0.8,0.7-2.7c0.1-1.9,1.4-4.6,2-5s1.1,0,1.4,1c0.4,1,1.5,5.4,1.5,5.4s0.5-0.8,0.9-2.4c0.3-1.6-0.4-7,0.3-7.5
						s1.8-0.2,2.6,1.8c0.8,2,2.6,9.5,2.6,9.5c0.5-0.8,0.3-5,0.3-6c0-1,0.2-2.8,0.7-2.9c0.5-0.1,1.3,0.5,1.8,2.5s4.5,7,4.5,7
						s-2.2-4-2.2-6.3c0-4.7,0.7-6.3,1-7.1c0.4-0.9,1.3-0.6,1.8,0.7c0.2,0.5,2,4.5,3.3,6.9c1.3,2.4,2.2,6.8,2.2,6.8s0.7-4.9,0.3-8.8
						c-0.3-2.7-1.9-7.4-1.8-7.8c0.1-0.4,1.1-1.2,3.8,2.1c2.7,3.3,5.5,16.8,5.5,16.8s0.5-1.4-0.2-6.2c-0.7-4.8-2.4-9.3-1.9-9.2
						c0.5,0.1,2.1,0.9,4.7,4.6s5.3,13.6,5.3,13.6s1.9-28.3-16.7-30.4c-13.5-1.6-35.1,11-35.1,11s-2.5-19.7-11.9-22.4
						c-18-5.3-29.1,8.5-29.1,8.5s13-7,13.5-5.6s-6.4,8.4-6.4,8.4s10.4-7.7,10.7-6.1c0.3,1.6-5.2,9.1-5.2,9.1s12.6-7.2,12.7-5.9
						c0.1,1.3-4.7,8.1-4.7,8.1s3.6-2.6,5.1-3.9s4.6-2.5,5.2-0.8c0.6,1.7-2.1,8.9-2.1,8.8c3.4-4.2,5.1-3.7,5.9-1.7
						c0.8,2-1.3,5.9-1.3,5.8c1.9-0.7,3.2,0.3,3.3,1.5c0.1,1.2-2,4.7-3.4,5.8c-1.4,1.1-1.8-0.4-9.5-2.7s-17-3.8-17-3.9
						c7.6,3.3,11.7,7.2,11.7,7.2s-21.4-2.5-24.5-2.6c-3.2-0.1-19.6-1.6-33.3,15.6S2,278.8,2,279c-0.1-8.2,4.2-16.6,5.7-16.6
						s0.5,4.7,0.5,4.7s3.6-7.4,4-7.2c0.4,0.1,0.8,7.5,0.8,6.1c0-1.4,2-5.4,2.5-7.1c0.5-1.7,0.7-4.9,0.8-7.2s1.1-3.6,2-3.4
						c0.9,0.1,2.4,7.8,2.4,7.8c0.3-6.1,2.2-12.8,2.2-12.8s0.9,0.9,2,2.2c1.1,1.3,2,6.2,2,6.3c0.9-2.5,0.5-12.9,0.5-13.8
						c0-0.9-0.4-2.2,1.6-1.6c2,0.7,4.5,9,4.6,9.1c1.4-3.8,0.1-11.1,0.3-11.1c3.8,0.9,5.4,7,5.7,7.1c0.7-2.8-1.1-7.2-1.1-7.2
						s4,0.8,5.9,2.8c2,2,7.4,2.9,7.4,2.9s-2.1-2.5-2.8-4.5c-0.7-2-0.8-3.3,0.8-2.1c1.6,1.2,5.7,4.2,8,4.7c2.4,0.5,1.6,1.8,1.6,1.8
						s-15.2,5-27.2,17.1c-12,12.1-16.3,30.4-17.4,38.8c-1.1,8.3,0,15.3,3.6,21s9.6,5,9.6,5s-2.8-0.5-4.6-3.2
						c-1.8-2.6-2.2-6.7-1.6-6.9c0.7-0.1,3.2,1.7,5.4,3.7c2.2,2,7.1,0,7.1,0s-0.7-0.3-4.1-4.1s-4.7-11.1-4.7-12.5
						c0-1.4,1.1-2.1,2.9,0.8s8.6,9.2,8.4,9.2c-1.2-7.2-2.2-25-2-25.6c0.3-0.5,1.7,0.5,3.2,2.4c1.4,1.8,6.5,8,6.5,8
						c-2.2-7.2-1.8-20.6-0.8-23.5c0.9-2.5,2.6-2.8,2.8-0.4c0.1,2.4,1.3,12.7,1.3,12.7l4.1-15.9c0,0,1.8-9.2,3-9.5
						c1.2-0.3,2.2,7.5,2.2,7.5s2.9-11.9,5-12.4s0.8,8.8,0.8,8.8s4.1-14,5.4-13c1.3,0.9-0.3,7.8-0.3,7.8l6.6-9.6l1.2,4.3l3.3-6.3
						l0.4,4c0,0,2.8-2.8,4.3-4c1.6-1.2,3.4,0.5,1.4,1.9s-20.8,27.7-21.5,45.5c-1,26,20,37,29.3,38.4c5.5,0.8,9.8-0.7,9.8-0.7
						s-8-1-21.5-13.5c-2.4-2.2-2.7-4-1.9-4.2c0.8-0.1,2.1,1.6,5.5,3.8s9.6,3.5,9.6,3.5s-2.5-1.8-8.1-7s-8.3-10.6-7.9-10.8
						s1.2,0.4,2.8,1.1c1.6,0.7,6.8,3.2,6.8,3.2c-5.2-3.3-9.6-10-10.6-11.8c-1-1.8-0.8-3-0.5-3.1c0.3-0.1,0.8,0.3,2.6,0.9
						c1.8,0.6,6.9,0.4,6.9,0.4s-3.5-1.2-5.8-3.6c-1.9-1.9-3.9-4.5-3.5-4.8s1.6,0.5,4.1,1.7s6.1,1.9,6.1,1.7
						c-2.3-2.5-7.8-11-7.6-11.3c0.2-0.3,1.7,0.3,3.5,0.7s4.6,0.6,4.7,0.5c-3.5-2.6-8.2-10.8-8-11.2c0.2-0.4,1-0.1,3.4,1
						c2.4,1.1,5.4,1.4,5.4,1.4s-5-6.4-3.6-7.2c0.9-0.5,5.5,2.4,5.4,2.4c-1.7-4.1-1-11.9-0.9-12.6c0.1-0.7,2.7,0.5,2.6,0.4
						c-0.3-6.1,1.3-5.2,1.3-5.2s15.3,9.5,37.7,45.3c10.4,16.7,18.5,42.7,19.6,68.2c1.1,23.3,0.3,42.4,0.3,42.4"/>
				</g>
			</g>
		</g>
	</g>
</g>
<text transform="matrix(1 0 0 1 -2200.3721 -201.1012)" style="display:none;fill:#00A1FF;enable-background:new    ; font-family:'Arvo-Bold'; font-size:251px; letter-spacing:65;">Matthew Berry’s</text>
<g>
	<g class="st17">
		<path class="st18" d="M-2018.5-263c0-27.9,0.5-61.7,1.8-82.3h-0.5c-8.5,34-19.7,79.4-37.3,141.6h-47
			c-13.8-57.8-25.2-106.4-33.9-141.9h-0.4c1.1,20.5,3.1,54.4,3.1,84.6v57.3h-51.1v-175.8h81.8c11.3,39.6,22.5,82.8,27.5,112.4h0.3
			c6.7-31.1,18-72.2,29.8-112.4h81.5v175.8h-55.7V-263z"/>
		<path class="st18" d="M-1815.5-236.5l-11.1,32.8h-57.3l66.5-175.8h74.5l70.9,175.8h-61.4l-11.9-32.8H-1815.5z M-1758.7-277.2
			c-11.5-31.7-18.1-51.7-22.5-66.4h-0.9c-3.8,14.6-11.6,39.5-21,66.4H-1758.7z"/>
		<path class="st18" d="M-1553.7-339.1h-58v-40.5h172.8v40.5h-57.7v135.3h-57.1V-339.1z"/>
		<path class="st18" d="M-1316.7-339.1h-58v-40.5h172.8v40.5h-57.7v135.3h-57.1V-339.1z"/>
		<path class="st18" d="M-1119.2-379.6h57.2v63.5h63.4v-63.5h57.2v175.8h-57.2v-71.8h-63.4v71.8h-57.2V-379.6z"/>
		<path class="st18" d="M-689.9-273.7h-94v29.4h105l-6.6,40.6h-154.8v-175.8H-685v40.7h-98.9v24.5h94V-273.7z"/>
		<path class="st18" d="M-562.7-203.8l-47.9-175.8h59.6c7.9,38.8,19.4,90.9,23.7,126.3h0.5c6.5-35.8,19.1-87.2,29.1-126.3h51.2
			c9.7,37.6,22.5,90.2,28.9,124.9h0.7c5-37.4,16.4-89,23.8-124.9h56.5l-50.9,175.8h-59.8c-9.7-36.9-21.1-85.4-28.2-117.7h-0.5
			c-5.9,32-17.2,78.1-27.3,117.7H-562.7z"/>
		<path class="st18" d="M-129.2-379.6h108.4c44.8,0,63.7,21.4,63.7,45.7c0,20.4-12.6,32.3-27.3,37.5c17.6,5.3,34,18.3,34,40.7
			c0,30.4-22.4,52-71.6,52h-107.2V-379.6z M-35-312.1c15.8,0,20.5-7,20.5-15.4c0-10.3-7.7-15.5-20.4-15.5h-38.7v31H-35z M-73.6-240
			h39.4c15.2,0,24-5.4,24-18.6c0-10.7-6.9-17.5-22.7-17.5h-40.6V-240z"/>
		<path class="st18" d="M289.6-273.7h-94v29.4h105l-6.6,40.6H139.3v-175.8h155.3v40.7h-98.9v24.5h94V-273.7z"/>
		<path class="st18" d="M444.3-268.4v64.7h-56.1v-175.8h106.3c43.7,0,66.5,21.4,66.5,50.5c0,22.6-13.1,36.2-30.3,42.1
			c9.5,4.1,25.7,12.5,25.7,42.3v9.5c0,10,0,22.8,2.4,31.4h-56.9c-2.9-7.4-3.6-18.2-3.6-36.4v-5.9c0-16.4-5.2-22.4-27.4-22.4H444.3z
			 M444.3-305h35c15.6,0,24.3-5.7,24.3-18.4c0-11.7-8-18.3-24.3-18.3h-35V-305z"/>
		<path class="st18" d="M708.5-268.4v64.7h-56.1v-175.8h106.3c43.7,0,66.5,21.4,66.5,50.5c0,22.6-13.1,36.2-30.3,42.1
			c9.5,4.1,25.7,12.5,25.7,42.3v9.5c0,10,0,22.8,2.4,31.4h-56.9c-2.9-7.4-3.6-18.2-3.6-36.4v-5.9c0-16.4-5.2-22.4-27.4-22.4H708.5z
			 M708.5-305h35c15.6,0,24.3-5.7,24.3-18.4c0-11.7-8-18.3-24.3-18.3h-35V-305z"/>
		<path class="st18" d="M959.9-203.8v-60.9c0-2.9-0.8-4.2-2.5-6.9l-70.7-108h67.1c14.1,25.3,29,51.9,37.5,70.5
			c8.4-18,23.8-44,38.2-70.5h61.4l-72.2,109.8c-1,1.6-1.4,3.1-1.4,6.1v60H959.9z"/>
		<path class="st18" d="M1150.5-307c5.2-19.3,11.4-48.4,12.5-81.4h47.7c-3.2,32.7-14.3,63.8-23.9,81.4H1150.5z"/>
		<path class="st18" d="M1341.1-256.7c3.7,11.6,12.7,20.4,35.6,20.4c20.3,0,26.6-6.1,26.6-14.9c0-9.3-5.6-14.8-38.6-20.5
			c-64.9-11.4-74.3-33.5-74.3-56.7c0-34.8,32.7-55.1,80.8-55.1c58.5,0,82,27,84.2,53h-55.5c-2-7.8-7-16.8-28.8-16.8
			c-15.5,0-22.8,5-22.8,13.3c0,8.1,7.3,11.9,34.6,16.9c66.4,11.9,79.3,32.8,79.3,59.2c0,33.5-28.2,57.9-87.9,57.9
			c-59,0-85.2-25-90.5-56.8H1341.1z"/>
	</g>
</g>
</svg>
