<svg width="88" height="88" viewBox="0 0 88 88" fill="none" xmlns="http://www.w3.org/2000/svg"><g filter="url(#filter0_d_2_369)"><rect x="16" y="13.2573" width="55.48" height="55.48" rx="11.8886" fill="white"></rect></g> <path d="M57.8245 38.5614C57.8245 30.622 51.3884 24.1858 43.4489 24.1858C35.5094 24.1858 29.0732 30.622 29.0732 38.5614" stroke="#063B42" stroke-width="2.69543" stroke-linecap="round" stroke-linejoin="round"></path> <path d="M25.4792 46.5369V43.1644C25.4792 41.5151 26.6016 40.0778 28.2015 39.6778L31.3274 38.8963C32.0079 38.7261 32.6671 39.2407 32.6671 39.9423V49.759C32.6671 50.4606 32.0079 50.9752 31.3274 50.8051L28.2015 50.0236C26.6016 49.6236 25.4792 48.1862 25.4792 46.5369Z" stroke="#063B42" stroke-width="2.69543"></path> <path d="M61.4183 46.5369V43.1644C61.4183 41.5151 60.2959 40.0778 58.6961 39.6778L55.5701 38.8963C54.8896 38.7261 54.2305 39.2407 54.2305 39.9423V49.759C54.2305 50.4606 54.8896 50.9752 55.5701 50.8051L58.6961 50.0236C60.2959 49.6236 61.4183 48.1862 61.4183 46.5369Z" stroke="#063B42" stroke-width="2.69543"></path> <path d="M57.8244 51.1401V52.0386C57.8244 54.0235 56.2154 55.6325 54.2305 55.6325H47.9412" stroke="#063B42" stroke-width="2.69543"></path> <path d="M46.1442 58.3279H40.7533C39.2646 58.3279 38.0579 57.121 38.0579 55.6324C38.0579 54.1438 39.2646 52.937 40.7533 52.937H46.1442C47.6328 52.937 48.8396 54.1438 48.8396 55.6324C48.8396 57.121 47.6328 58.3279 46.1442 58.3279Z" fill="#E9522A" stroke="#E9522A" stroke-width="2.69543"></path> <defs><filter id="filter0_d_2_369" x="0.148571" y="0.576181" width="87.1828" height="87.1828" filterUnits="userSpaceOnUse" color-interpolation-filters="sRGB"><feFlood flood-opacity="0" result="BackgroundImageFix"></feFlood> <feColorMatrix in="SourceAlpha" type="matrix" values="0 0 0 0 0 0 0 0 0 0 0 0 0 0 0 0 0 0 127 0" result="hardAlpha"></feColorMatrix> <feOffset dy="3.17029"></feOffset> <feGaussianBlur stdDeviation="7.92571"></feGaussianBlur> <feColorMatrix type="matrix" values="0 0 0 0 0.090196 0 0 0 0 0.0588235 0 0 0 0 0.286275 0 0 0 0.08 0"></feColorMatrix> <feBlend mode="normal" in2="BackgroundImageFix" result="effect1_dropShadow_2_369"></feBlend> <feBlend mode="normal" in="SourceGraphic" in2="effect1_dropShadow_2_369" result="shape"></feBlend></filter></defs></svg>