<svg width="98" height="48" viewBox="0 0 98 48" fill="none" xmlns="http://www.w3.org/2000/svg" class="cursor-pointer"><g clip-path="url(#clip0_2_108)"><path d="M23.8076 18.3411C25.9191 18.3411 28.2418 18.3411 30.3533 18.3411C48.9349 18.5525 67.7275 18.9754 86.3091 19.1869C88.4206 19.1869 90.321 19.1869 92.4325 19.3984C95.1775 19.6098 98.556 20.2442 97.9225 23.8389C97.7114 25.3191 94.5441 27.0108 92.6437 27.2222C77.0183 28.0681 61.6041 28.7024 45.9787 29.3368C42.3891 29.5483 38.7995 29.3368 34.9987 31.2399C39.2218 33.7774 43.656 35.892 47.668 38.6409C49.5683 39.9096 51.6799 43.0815 51.2576 44.9846C50.4129 48.7908 46.1899 48.3679 43.656 47.0992C30.9868 41.6013 18.1064 36.1034 5.85952 29.5483C-1.95317 25.3191 -1.95317 18.9754 5.85952 14.7463C16.206 9.03698 27.3972 4.80785 38.166 0.155801C39.433 -0.478569 41.5445 1.00162 43.2337 1.42454C42.6003 3.11619 42.6003 5.65367 41.3333 6.4995C38.7995 8.61406 35.421 9.88281 32.4649 11.5745C29.2976 13.2661 26.1303 14.9578 23.1741 16.6494C23.5964 17.0723 23.8076 17.7067 23.8076 18.3411Z" fill="#063B42"></path></g> <defs><clipPath id="clip0_2_108"><rect width="48" height="98" fill="white" transform="translate(98) rotate(90)"></rect></clipPath></defs></svg>